Patient4_TMGait_0pt3_01_left_29_EMG.mot
version=1
nRows=36
nColumns=33
inDegrees=no
endheader
time	1LAddLong	2LGlutMax	3LGlutMed	4LIliopsoas	5LSemiMemb	6LBicFemLong	7LRecFem	8LVastMed	9LVastLat	10LGasMed	11LTibAnt	12lTibPost	13LPeroneusLong	14LSol	15LExtDigLong	16LFlexDigLong	17RAddLong	18RGlutMax	19RGlutMed	20RIliopsoas	21RSemiMemb	22RBicFemLong	23RRecFem	24RVastMed	25RVastLat	26RGasMed	27RTibAnt	28RTibPost	29RPeroneusLong	30RSol	31RExtDigLong	32RFlexDigLong
55.43	-0.011597	0.10941	0.028534	0.007324	0.007324	-0.36392	0.1387	0.046082	-0.2385	0.058289	0.009613	0.006866	-0.029144	0.01358	0.002594	0.012054	0.001526	-0.07843	-0.012665	0.12314	-0.005798	-0.007019	0.13809	-0.017242	0.03006	-0.032043	0.036011	-0.16129	-1.3432	-0.14771	-0.002289	-0.009155
55.431	-0.02182	0.09491	0.076294	-0.003052	0.002747	-0.19226	0.15945	0.048828	-0.20569	0.055237	0.005188	-0.003052	-0.02121	0.1236	0.024567	0.014648	0.00885	-0.067444	-0.1033	0.072937	-0.012512	0.014038	0.1181	-0.011597	0.052338	-0.057373	0.031281	-0.21698	-0.95856	-0.29831	-0.004272	-0.022583
55.432	-0.008087	0.11337	0.11902	0.010376	0.067139	-0.15976	0.13504	0.026245	-0.14038	0.12451	0.005798	0.023193	0.024261	0.061188	0.039825	-0.020447	0.00351	-0.095215	-0.028381	-0.014801	-0.014343	0.005035	0.14008	-0.0354	0.021515	-0.063782	0.057526	-0.072327	-0.5693	-0.001678	0.000305	-0.023499
55.433	-0.008698	0.12528	0.12131	0.009003	0.10239	-0.11627	0.12314	0.002594	-0.082855	0.18677	0.000458	0	0.047913	-0.08667	0.00885	-0.004425	0.003967	-0.091858	0.008392	0.011597	-0.001984	0.014191	0.13214	-0.081177	0.024414	-0.05188	-0.031738	0.041199	-0.25436	0.21713	-0.001373	-0.024109
55.434	-0.011597	0.070343	0.046234	0	0.078583	-0.046997	0.095062	0.003662	-0.035858	0.24185	0.005188	0.000916	0.02594	-0.23926	-0.022583	0.006256	0.014343	-0.014496	-0.019989	0.02594	-0.009155	0.011292	0.12131	-0.029755	0.044708	-0.013275	-0.03479	0.28458	0.61371	0.21881	-0.001068	-0.022583
55.435	-0.015564	0.040588	0.018616	-0.004883	0.0383	-0.021667	0.054321	-0.024261	0.075531	0.20264	0.00885	0.011902	-0.001526	-0.22858	-0.018005	-0.001373	0.004425	-0.032349	-0.031738	0.012665	-0.014191	0.009766	0.10452	-0.029449	0.029755	-0.005798	0.021973	0.2594	0.51407	-0.40344	0.002441	-0.037689
55.436	-0.002899	0.001068	-0.035095	0.011902	0.011292	-0.028381	0.039825	-0.022736	0.25894	-0.010071	0.003357	0.00473	0.079956	-0.29083	0	0.020142	0.004578	-0.016632	0.14694	-0.027466	-0.010834	0.011749	0.13687	-0.036163	0.034485	0.007172	0.030365	0.091858	0.037079	-0.50323	-0.00061	-0.028839
55.437	0.001526	-0.081482	-0.082397	0.002289	-0.016785	-0.010681	0.065765	-0.025177	0.31296	-0.31586	-0.003204	-0.001526	0.10696	-0.23743	-0.003662	-0.005341	0.002136	0.04776	0.19424	-0.011749	-0.012817	0.015717	0.097656	-0.086517	0.026855	0.014343	0.026703	0.060425	0.37354	-0.29404	0.001526	-0.023041
55.438	-0.006104	-0.093994	-0.043488	0.004272	-0.061493	0.03418	0.075226	-0.020599	0.27359	-0.17395	-0.003204	0.014954	0.10681	-0.079346	0.01358	-0.02182	0.009155	0.10391	-0.015564	-0.030823	-0.015564	0.022278	0.11169	-0.027924	0.041199	-0.008545	0.004272	0.047913	0.61295	-0.21194	-0.000305	-0.011292
55.439	0.001526	-0.15884	-0.072021	-0.001831	-0.066223	0.039825	0.085144	-0.015259	0.13046	-0.019073	0.014343	0.017395	-0.057983	-0.021057	0.011902	-0.012817	0.008545	0.091705	-0.08606	-0.03418	-0.016632	0.02182	0.10559	-0.1004	0.033722	-0.000916	0.033112	0.021973	0.66208	0.062256	-0.005188	-0.009155
55.44	0.007782	-0.14877	-0.007782	-0.019531	-0.043335	0.021515	0.059204	-0.016785	-0.065308	-0.11047	0.002441	-0.002594	0.1445	0.15915	-0.013885	0.01297	0.00946	0.021667	0.00351	-0.005493	-0.001984	0.014801	0.11124	-0.12726	0.022888	0.001526	0.046539	0.010529	-0.29053	-0.064087	-0.002747	-0.013275
55.441	0.018616	-0.16434	-0.025177	0.017395	0.019836	0.023804	0.067139	-0.021973	-0.17258	-0.080261	0.010986	-0.024719	0.47089	0.35706	-0.00412	0.017395	0.018616	0.015717	-0.021362	-0.008545	-0.014496	0.020752	0.11185	-0.1294	-0.009003	0.001984	0.063324	-0.016937	-0.32166	-0.041504	-0.002899	-0.014038
55.442	-0.002899	-0.18951	-0.14206	0.054016	-0.022888	0.098267	0.094147	-0.013885	-0.2417	0.055237	0.034027	0.047913	0.12726	0.080414	0.022278	-0.020142	0.007324	0.013733	-0.11002	0.033569	-0.015869	0.002594	0.16174	-0.14114	0.003204	0.005493	0.088348	-0.033722	0.006256	0.017853	-0.000305	-0.016174
55.443	-0.005646	-0.14786	-0.20477	0.005798	-0.041656	0.14206	0.10162	-0.005188	-0.21194	0.15198	0.019989	0.099487	-0.63217	-0.23865	0.1004	-0.031281	0.012207	-0.039978	0.041504	0.032501	-0.00061	0.028534	0.18326	-0.066986	-0.014343	0.002289	0.14542	-0.032349	-0.80276	0.000305	0.001068	-0.012665
55.444	0.004425	-0.13092	-0.15793	-0.020142	-0.048065	0.28259	0.045929	0.011597	-0.10544	0.037384	0.024719	-0.050507	-0.24536	-0.25604	0.035706	0.01297	0.000305	-0.035248	0.10605	-0.005951	-0.005951	0.031281	0.21545	0.1178	0.028839	0.00061	0.15717	-0.030975	-0.56	0.06012	-0.002747	-0.011749
55.445	0.006409	-0.093536	-0.10269	-0.015564	-0.082703	0.37613	-0.07843	0.023041	-0.057373	0.052795	0.005188	0.001831	0.51407	-0.52048	-0.1709	0.013733	0.000763	-0.00473	-0.000916	-0.026703	-0.004425	0.015259	0.27237	0.11215	0.001221	-0.003815	0.20294	-0.032043	-0.65918	-0.034332	-0.000458	-0.000458
55.446	-0.001221	-0.078583	0.029297	0.001678	-0.12177	0.5043	0.013733	0.016327	-0.019531	0.029602	-0.004578	-0.007019	0.47821	-0.29434	-0.15472	0.011902	-0.003967	-0.014038	-0.024719	-0.001678	0.003967	0.028534	0.30106	0.04425	-0.025787	0.008392	0.11749	-0.030365	0.71808	-0.11627	-0.001678	-0.006104
55.447	-0.010529	-0.11765	0.026398	-0.007324	-0.035095	0.5629	0.092163	0.012207	-0.014954	0.031891	0.001373	0.007935	-0.44144	0.021973	-0.08667	0.003052	0.010223	-0.085297	-0.037231	0.012207	-0.002441	0.019226	0.35202	-0.090485	-0.075378	0.02594	0.13504	-0.030212	0.3772	-0.13458	-0.002899	-0.021057
55.448	-0.010834	-0.13092	-0.095367	0.001984	-0.056763	0.51956	0.11124	0.007324	-0.046387	0.027008	-0.004272	0.031738	-0.21683	0.081177	-0.03479	0.013885	-0.002747	-0.049744	0.022736	0.029297	-0.003357	0.031433	0.21805	-0.15305	-0.034637	0.015564	0.074615	-0.031281	0.1799	-0.082397	-0.000305	-0.01236
55.449	0.002289	-0.072479	-0.13901	0.009613	-0.061951	0.44952	0.078888	0.000305	-0.054932	0.006714	-0.005341	0.001221	-0.23392	0.13062	0.001221	-0.001221	0.000305	-0.036163	0.12222	0.05127	0.002899	0.011902	-0.085754	-0.13809	0.019989	0.030823	-0.09613	-0.031281	0.5014	0.062256	-0.006256	-0.016479
55.45	0.014191	-0.076752	-0.063477	0.006714	0.053558	0.32196	-0.002594	0.006104	-0.068665	-0.056152	0.002136	0.002899	-0.039978	0.11368	0.003357	-0.012665	0.003357	-0.04303	0.1149	0.023956	0.006866	0.046387	-0.20844	-0.077362	0.05188	0.016632	-0.090485	-0.037079	0.3949	0.22018	-0.001984	-0.020752
55.451	0.011444	-0.002441	-0.061188	-0.006409	0.035706	-0.085144	-0.019073	0.016174	-0.042267	-0.088196	0.013275	-0.010223	0.17838	0.026398	0.034637	0.005951	0.002899	-0.033112	-0.045319	-0.03418	-0.000458	0.029297	-0.18265	0.098114	0.097351	-0.000763	-0.03006	-0.045624	0.18875	0.33096	-0.002289	-0.02121
55.452	-0.003357	-0.00473	-0.025482	0.000305	0.024414	-0.4805	-0.027161	0.014954	0.009918	0.00885	0.017395	0.00412	-0.099945	-0.052338	0.080566	0.004425	0.001984	-0.047302	-0.11002	-0.077057	-0.007782	0.025482	-0.09552	0.12451	0.11627	-0.022583	-0.044098	-0.084991	-0.1474	0.43366	-0.001221	-0.02243
55.453	0.001068	0.059814	-0.049896	0.016632	0.00824	-0.60364	-0.023193	-0.007629	0.078125	0.10315	0.017548	0.006409	-0.28122	0.059814	0.058289	-0.007782	0.002747	-0.042725	-0.16144	-0.10635	-0.019226	0.001526	0.076141	0.080719	0.11017	-0.025024	-0.039673	-0.020447	-0.15656	0.18402	-0.002136	-0.01709
55.454	0.006104	0.04425	-0.009613	0.005341	0.010071	-0.76843	-0.013885	-0.02243	0.069733	0.095367	0.012054	-0.002289	-0.043488	0.049438	0.032806	-0.018005	-0.005493	-0.042572	-0.13062	-0.085907	-0.014801	-0.003815	0.11581	0.071564	0.12894	-0.034332	-0.031433	-0.001831	0.25757	-0.57632	-0.003815	-0.014343
55.455	0.000153	0.093231	-0.00412	-0.014801	0.018158	-0.45181	-0.00473	-0.016174	0.030823	0.05127	0.022278	-0.00351	-0.16998	0.19913	0.058899	-0.055237	-0.007935	-0.049286	0.020752	-0.02594	-0.020447	0.011292	0.14374	-0.024872	0.10056	-0.025024	-0.015259	-0.23025	0.87265	-1.0155	-0.002136	-0.018616
55.456	-0.015564	0.1268	-0.030365	-0.00061	-0.006866	-0.20462	-0.012817	-0.01236	0.04425	-0.17258	0.019684	-0.006561	-0.57129	0.14297	0.03952	0.079041	-0.003204	-0.045013	0.11841	0.006866	-0.015564	0.023956	0.17044	-0.005188	0.073547	-0.015259	0.00351	-0.078583	0.6189	-0.10315	0.000458	-0.009766
55.457	-0.005035	0.092926	0.011902	0.021667	0.001373	-0.098724	-0.021973	-0.00946	0.084229	-0.020447	-0.010223	-0.012054	0.39276	0.028992	0.010376	-0.1091	-0.00061	-0.10254	-0.10117	0.050201	-0.012512	0.010834	0.16541	0.036163	0.090027	0.002136	0.067596	0.31052	-0.20187	0.62256	-0.003052	-0.014343
55.458	-0.00412	0.10071	0.022583	0.003204	0.024719	-0.063782	0.027008	-0.004425	0.080566	-0.17151	-0.008087	-0.00412	0.52628	-0.000153	0.003815	0.029602	-0.009918	-0.084229	-0.12573	0.11993	-0.011292	0.018616	0.03067	0.015411	0.065765	0	0.099945	0.11963	-1.035	0.2861	0.000458	-0.009918
55.459	-0.002594	0.094757	0.07843	0	-0.014343	-0.01709	0.023804	0.006104	0.043945	-0.36255	0.000763	-0.007324	-0.27069	0.028839	0.014648	0.29037	-0.005341	-0.11719	-0.019836	0.11337	-0.005493	0.032654	-0.10483	-0.000458	0.028992	0.010223	0.054626	0.033875	-1.0397	0.049744	-0.002289	-0.006714
55.46	0.005341	0.087128	0.014496	-0.005646	-0.056458	0.060577	0.092468	0.00946	0.041199	-0.15823	0.011292	-0.03067	-0.40161	0.039368	0.024109	-0.10407	-0.006256	-0.11093	0.008087	0.10223	-0.013428	0.019531	0.032043	-0.010681	0.015106	0.014191	0.062103	0.006409	-0.25955	0.17364	0.001831	-0.019684
55.461	0.017853	0.11765	-0.006866	-0.011749	-0.055542	0.013275	0.089722	0.010986	0.010986	0.066986	0.019226	0.016022	0.03418	-0.10529	-0.066833	-0.1712	0.000153	-0.090942	0.031128	0.041199	-0.018158	0.014954	0.10925	-0.032959	0.033569	0.015106	0.014038	-0.006866	0.95444	0.1297	0.000153	-0.002899
55.462	0.022125	0.18112	0.035553	0.00946	-0.016937	-0.014038	0.037842	0.016479	0.036316	0.22232	-0.003967	0.081635	0.44968	-0.14175	-0.10513	0.05722	-0.002899	-0.13809	-0.11597	0.005035	-0.009308	0.027618	0.13504	-0.078278	0.041656	0.020142	0.036163	-0.012512	0.85648	0.11856	0.002899	-0.008545
55.463	0.015869	0.15167	0.059357	0.012512	-0.043182	0.036469	0.015717	0.001526	0.032959	0.1181	-0.033417	0.042419	0.38116	0.048218	-0.011292	0.026245	0.001678	-0.11978	-0.030823	-0.007019	-0.018311	0.021515	0.14084	-0.063171	0.002594	0.019226	0.051117	-0.020294	-0.005646	0.00885	-0.002747	0.005188
55.464	0.015411	0.10147	0.14358	-0.006866	0.003815	-0.041351	0.045013	0.006561	0.059357	0.085907	-0.026093	-0.10757	-0.13046	-0.26489	0.003967	0.013428	0.00473	-0.10117	0.014801	0.02594	-0.014343	0.010986	0.13504	-0.039825	0.001984	0.009308	0.057068	-0.031586	-0.63309	-0.12039	-0.005798	-0.000916
55.465	0.011597	0.017395	0.17731	-0.006256	0.074005	-0.19806	0.057678	0.011139	0.025635	0.052032	-0.015106	0.031586	0.086212	-0.23575	-0.019989	0.001831	-0.000153	-0.12253	-0.002899	0.042572	-0.002136	0.021057	0.14511	-0.015717	-0.012665	0.028381	0.068054	-0.049896	-0.64316	-0.1889	0.010834	-0.007782
